<svg width="72" height="72" viewBox="0 0 72 72" fill="none" xmlns="http://www.w3.org/2000/svg">
<path d="M58.94 0H13.06C5.84716 0 0 5.84716 0 13.06V58.94C0 66.1528 5.84716 72 13.06 72H58.94C66.1528 72 72 66.1528 72 58.94V13.06C72 5.84716 66.1528 0 58.94 0Z" fill="#282A36"/>
<path opacity="0.1" d="M31.11 39C30.4699 38.9985 29.8345 38.8904 29.23 38.68C28.0515 38.2184 27.0027 37.4777 26.1736 36.5214C25.3445 35.5652 24.7599 34.422 24.47 33.19C23.8045 32.4891 23.3564 31.6103 23.18 30.66C22.76 29.19 22.79 28.2 23.28 27.55C23.3589 27.4529 23.4459 27.3625 23.54 27.28C23.54 27.28 23.54 27.21 23.54 27.17C23.2889 26.0708 23.2889 24.9292 23.54 23.83C23.8789 22.5246 24.5708 21.3379 25.54 20.4C26.0609 19.8488 26.6488 19.365 27.29 18.96C27.8154 18.5794 28.3908 18.2732 29 18.05C29.5378 17.8764 30.0957 17.7723 30.66 17.74C30.86 17.74 31.09 17.74 31.31 17.74C32.5003 17.7302 33.6712 18.0411 34.7 18.64C35.4154 19.0265 36.0368 19.5659 36.52 20.22C37.0836 20.4075 37.5804 20.7549 37.95 21.22C38.95 22.46 39.2 24.45 38.75 27.15C38.75 27.15 38.75 27.23 38.75 27.27C38.8431 27.3466 38.927 27.4339 39 27.53C39.49 28.18 39.52 29.17 39.11 30.65C38.9299 31.5932 38.482 32.4646 37.82 33.16C37.5194 34.3962 36.924 35.5413 36.0846 36.4973C35.2452 37.4534 34.1869 38.192 33 38.65C32.3942 38.8701 31.7544 38.9818 31.11 38.98V39Z" fill="#353535"/>
<path d="M26.35 31.49C26.5457 32.6505 27.0367 33.7412 27.7757 34.6571C28.5148 35.5731 29.4771 36.2835 30.57 36.72C31.5728 37.0754 32.6672 37.0754 33.67 36.72C34.7563 36.2745 35.713 35.5629 36.4522 34.6507C37.1914 33.7385 37.6893 32.655 37.9 31.5C38.22 31.5 38.65 31.02 39.1 29.4C39.73 27.19 39.1 26.86 38.5 26.91C38.6067 26.6143 38.687 26.3098 38.74 26C39.74 20.27 36.88 20.07 36.88 20.07C36.4636 19.3957 35.8728 18.8463 35.17 18.48C34.1175 17.8718 32.8982 17.616 31.69 17.75C31.2175 17.7696 30.7498 17.8537 30.3 18C29.7577 18.191 29.2431 18.4533 28.77 18.78C28.1909 19.1453 27.6601 19.5821 27.19 20.08C26.3554 20.9024 25.7667 21.9414 25.49 23.08C25.2701 24.0375 25.2701 25.0325 25.49 25.99C25.5513 26.2947 25.6314 26.5953 25.73 26.89C25.17 26.84 24.5 27.16 25.13 29.38C25.6 31 26 31.47 26.35 31.49Z" fill="#F5F5F5"/>
<path opacity="0.1" d="M32 45C31.9072 45.0146 31.8127 45.0146 31.72 45C31.5274 44.9488 31.3292 44.922 31.13 44.92C30.9477 44.9192 30.7661 44.9428 30.59 44.99C30.5069 44.9998 30.423 44.9998 30.34 44.99C30.194 44.9919 30.0494 44.9618 29.9164 44.9019C29.7833 44.8419 29.665 44.7536 29.5697 44.643C29.4744 44.5325 29.4044 44.4024 29.3647 44.262C29.3251 44.1215 29.3166 43.9741 29.34 43.83C28.34 42.28 28.07 41.05 28.57 40.09C28.8418 39.6609 29.2235 39.3123 29.6753 39.0802C30.1272 38.8481 30.6328 38.741 31.14 38.77C31.6552 38.739 32.1692 38.847 32.6284 39.0827C33.0875 39.3185 33.4749 39.6733 33.75 40.11C34.24 41.11 33.98 42.29 32.98 43.82C33.0063 43.9639 33.0007 44.1118 32.9637 44.2533C32.9267 44.3948 32.859 44.5264 32.7656 44.6389C32.6721 44.7514 32.5552 44.8421 32.4229 44.9045C32.2906 44.9669 32.1462 44.9995 32 45Z" fill="#353535"/>
<path d="M32.1899 38.8C31.6899 38.8 28.8299 38.98 31.4899 42.7L31.3799 43.02C31.6377 42.9517 31.9033 42.9181 32.1699 42.92C32.449 42.9092 32.7281 42.9361 32.9999 43L32.8799 42.65C35.5499 39 32.6799 38.8 32.1899 38.8Z" fill="#F5F5F5"/>
<path opacity="0.1" d="M37.91 50.45C37.7784 50.4508 37.6479 50.4255 37.5261 50.3758C37.4042 50.326 37.2934 50.2527 37.2 50.16L32.92 45.88C32.7914 45.7517 32.7002 45.5909 32.6562 45.4147C32.6122 45.2385 32.6169 45.0537 32.67 44.88L35 37.38C35.0468 37.2326 35.1272 37.0982 35.2347 36.9871C35.3423 36.8761 35.4742 36.7915 35.62 36.74C35.729 36.7004 35.844 36.6801 35.96 36.68C36.1516 36.6805 36.339 36.736 36.5 36.84C38.1412 37.8399 39.8761 38.6772 41.68 39.34C42.4898 39.5887 43.2305 40.0228 43.8433 40.6078C44.456 41.1928 44.924 41.9126 45.21 42.71C45.2655 42.8819 45.2735 43.0657 45.233 43.2417C45.1925 43.4178 45.1051 43.5796 44.98 43.71L38.58 50.11C38.4093 50.3061 38.169 50.4281 37.91 50.45Z" fill="#353535"/>
<path d="M34.63 44.17L35.49 45.03L38.91 48.45L41.36 46L42.36 45L42.76 44.6L45.34 42.02C45.1039 41.3587 44.7143 40.7628 44.2032 40.2813C43.6922 39.7998 43.0742 39.4463 42.4 39.25C40.522 38.5678 38.7138 37.7072 37 36.68L34.63 44.17Z" fill="#F5F5F5"/>
<path opacity="0.1" d="M17.44 51.38C17.3077 51.3795 17.1768 51.3527 17.0549 51.3012C16.933 51.2497 16.8226 51.1745 16.73 51.08C16.6373 50.9866 16.564 50.8757 16.5142 50.7539C16.4644 50.6321 16.4392 50.5016 16.44 50.37V49.29C16.49 44.2 16.52 40.84 20.63 39.34C22.4286 38.6765 24.1598 37.8427 25.8 36.85C25.9638 36.7442 26.1549 36.6886 26.35 36.69C26.5621 36.6908 26.7684 36.7591 26.9392 36.8849C27.11 37.0108 27.2363 37.1876 27.3 37.39L29.65 44.8C29.703 44.9737 29.7078 45.1585 29.6637 45.3347C29.6197 45.5109 29.5285 45.6717 29.4 45.8L24.12 51.08C24.0265 51.1727 23.9157 51.246 23.7939 51.2958C23.672 51.3455 23.5416 51.3708 23.41 51.37L17.44 51.38Z" fill="#353535"/>
<path d="M27.36 36.69C25.6609 37.724 23.8659 38.5914 22 39.28C18.3 40.63 18.52 43.67 18.45 49.38H24.45L29.74 44.1L27.36 36.69Z" fill="#F5F5F5"/>
<path opacity="0.1" d="M44.7899 39C44.6049 39.0015 44.4215 38.9654 44.2508 38.8941C44.08 38.8227 43.9255 38.7175 43.7966 38.5848C43.6676 38.4521 43.5669 38.2947 43.5004 38.122C43.434 37.9493 43.4032 37.7649 43.4099 37.58V37.33C42.879 37.2285 42.362 37.064 41.8699 36.84C41.6858 36.7757 41.5167 36.6747 41.3728 36.5431C41.2289 36.4114 41.1132 36.252 41.0328 36.0743C40.9524 35.8966 40.9089 35.7045 40.905 35.5095C40.901 35.3145 40.9367 35.1208 41.0099 34.94C41.0999 34.62 41.1899 34.29 41.2899 33.94C41.3474 33.6585 41.5001 33.4054 41.7223 33.2232C41.9445 33.0411 42.2226 32.9411 42.5099 32.94C42.7701 32.948 43.0243 33.0201 43.2499 33.15C43.7167 33.3837 44.2212 33.5327 44.74 33.59H44.9299C45.0698 33.592 45.2087 33.5683 45.3399 33.52C45.2179 33.4362 45.0871 33.3658 44.9499 33.31L44.4199 33C43.9306 32.8242 43.4558 32.6102 42.9999 32.36C42.3661 32.0511 41.8379 31.5615 41.482 30.9529C41.1261 30.3442 40.9583 29.6438 40.9999 28.94C41.0253 28.1857 41.2801 27.4571 41.7304 26.8513C42.1807 26.2456 42.8049 25.7917 43.5199 25.55C43.5199 25.42 43.5199 25.29 43.5199 25.17C43.5 24.9729 43.525 24.7738 43.5931 24.5878C43.6612 24.4018 43.7706 24.2336 43.913 24.0959C44.0555 23.9583 44.2273 23.8547 44.4156 23.7931C44.6039 23.7314 44.8037 23.7133 44.9999 23.74H45.5999C47.0499 23.74 47.2099 24.6 47.2299 25.31C47.6701 25.3956 48.0994 25.5298 48.5099 25.71C48.8329 25.838 49.0957 26.0831 49.2458 26.3964C49.396 26.7097 49.4224 27.0681 49.3199 27.4L49.2199 27.75C49.1399 28.01 49.07 28.26 48.99 28.51C48.9291 28.7898 48.7755 29.0409 48.554 29.2224C48.3326 29.4039 48.0563 29.5053 47.7699 29.51C47.5216 29.5037 47.2782 29.4386 47.0599 29.32C46.6684 29.1225 46.2383 29.0133 45.7999 29L46.24 29.19C46.7287 29.3829 47.2061 29.6032 47.6699 29.85C48.186 30.1343 48.6329 30.5292 48.9786 31.0063C49.3244 31.4834 49.5604 32.031 49.6699 32.61C49.7773 33.1638 49.7603 33.7346 49.6203 34.2811C49.4802 34.8275 49.2205 35.3361 48.8599 35.77C48.4018 36.3298 47.8005 36.7549 47.1199 37V37.51C47.1413 37.699 47.1221 37.8904 47.0637 38.0714C47.0053 38.2524 46.9091 38.4189 46.7814 38.5598C46.6537 38.7008 46.4975 38.8129 46.3231 38.8888C46.1487 38.9647 45.9601 39.0026 45.7699 39H44.7699H44.7899Z" fill="#353535"/>
<path d="M43.31 34.89C43.8272 35.1263 44.3765 35.2846 44.94 35.36C45.38 35.43 45.4 35.45 45.41 35.91V36.53C45.4023 36.5852 45.4071 36.6415 45.4241 36.6946C45.4412 36.7477 45.47 36.7963 45.5085 36.8367C45.547 36.8771 45.5941 36.9083 45.6463 36.9279C45.6985 36.9475 45.7545 36.9551 45.81 36.95H46.73C46.7833 36.9548 46.837 36.9477 46.8872 36.9291C46.9374 36.9106 46.9828 36.8811 47.0202 36.8428C47.0575 36.8045 47.0859 36.7583 47.1032 36.7077C47.1204 36.657 47.1262 36.6032 47.12 36.55C47.12 36.27 47.12 35.98 47.12 35.7C47.1102 35.6406 47.1126 35.5799 47.1271 35.5215C47.1416 35.4631 47.168 35.4083 47.2046 35.3605C47.2411 35.3127 47.2871 35.2729 47.3396 35.2436C47.3922 35.2143 47.4502 35.196 47.51 35.19C48.1374 35.0317 48.7 34.6822 49.12 34.19C49.3902 33.8534 49.5821 33.4609 49.6818 33.0409C49.7816 32.621 49.7866 32.1841 49.6966 31.7619C49.6067 31.3398 49.4239 30.9429 49.1616 30.6001C48.8993 30.2573 48.564 29.9772 48.18 29.78C47.66 29.5 47.11 29.28 46.56 29.05C46.2448 28.9251 45.9487 28.7568 45.68 28.55C45.5606 28.4695 45.4661 28.357 45.4073 28.2255C45.3486 28.0939 45.3279 27.9485 45.3477 27.8057C45.3675 27.663 45.427 27.5287 45.5193 27.4181C45.6116 27.3075 45.7331 27.225 45.87 27.18C46.0445 27.1081 46.2313 27.0708 46.42 27.07C47.1097 27.0336 47.7974 27.1712 48.42 27.47C48.74 27.63 48.85 27.58 48.96 27.25C49.07 26.92 49.17 26.53 49.28 26.17C49.2972 26.1208 49.3043 26.0687 49.301 26.0166C49.2976 25.9646 49.2839 25.9138 49.2606 25.8672C49.2373 25.8206 49.2049 25.7792 49.1653 25.7453C49.1257 25.7114 49.0797 25.6858 49.03 25.67C48.6179 25.4892 48.1844 25.3615 47.74 25.29C47.15 25.2 47.15 25.19 47.15 24.61C47.15 23.77 47.15 23.77 46.32 23.78H46C45.61 23.78 45.54 23.86 45.53 24.25V24.78C45.53 25.3 45.53 25.29 45.03 25.47C44.4679 25.6234 43.9688 25.9509 43.6041 26.4053C43.2395 26.8598 43.028 27.418 43 28C42.9699 28.5193 43.0944 29.0359 43.3578 29.4845C43.6212 29.9331 44.0118 30.2934 44.48 30.52C45.082 30.8353 45.7033 31.1126 46.34 31.35C46.5828 31.4539 46.8113 31.5883 47.02 31.75C47.1575 31.8491 47.2653 31.9838 47.3318 32.1397C47.3983 32.2956 47.4209 32.4667 47.3972 32.6345C47.3735 32.8023 47.3045 32.9604 47.1974 33.0918C47.0904 33.2232 46.9496 33.3228 46.79 33.38C46.4149 33.5393 46.0029 33.5912 45.6 33.53C44.9697 33.464 44.3564 33.2845 43.79 33C43.46 32.82 43.36 32.87 43.25 33.23C43.14 33.59 43.06 33.86 42.98 34.17C42.9 34.48 42.89 34.69 43.31 34.89Z" fill="#F5F5F5"/>
<path opacity="0.1" d="M37.8899 56.29C37.6203 56.2929 37.3528 56.2413 37.1036 56.1382C36.8545 56.035 36.6287 55.8826 36.4399 55.69L31.11 50.36L27 54.45C26.6098 54.8323 26.0861 55.0475 25.54 55.05C25.2686 55.0543 24.9993 55.0033 24.7483 54.9001C24.4973 54.797 24.2699 54.6438 24.08 54.45L23.82 54.19C23.4364 53.8008 23.2214 53.2764 23.2214 52.73C23.2214 52.1836 23.4364 51.6592 23.82 51.27L29.6299 45.47C30.0152 45.0865 30.5364 44.8709 31.08 44.87C31.3513 44.8657 31.6206 44.9167 31.8716 45.0199C32.1226 45.123 32.35 45.2762 32.54 45.47L37.86 50.79L46.66 42L45.8899 41.22C45.6438 41.0102 45.4726 40.7259 45.4023 40.4102C45.3319 40.0945 45.3662 39.7645 45.5 39.47C45.6344 39.191 45.8488 38.9583 46.1159 38.8016C46.3831 38.6449 46.6908 38.5712 47 38.59L51.84 38.36H51.9599C52.1849 38.348 52.4099 38.3837 52.6201 38.4647C52.8304 38.5457 53.0212 38.6702 53.18 38.83C53.3353 39.0003 53.4529 39.2014 53.5253 39.4202C53.5977 39.6391 53.6231 39.8707 53.5999 40.1V40.3L53.3899 44.79C53.3949 45.1032 53.3148 45.4119 53.158 45.6831C53.0013 45.9544 52.7738 46.1779 52.5 46.33C52.2811 46.4459 52.0376 46.5076 51.79 46.51C51.5638 46.5142 51.3394 46.4709 51.131 46.3831C50.9226 46.2953 50.7349 46.1648 50.58 46L49.83 45.26L39.3499 55.69C38.961 56.0741 38.4365 56.2896 37.8899 56.29Z" fill="#353535"/>
<path d="M52.92 38.36H52.85L48 38.59C47.75 38.59 47.5 38.59 47.37 38.91C47.24 39.23 47.37 39.37 47.56 39.55C48.05 40.04 48.56 40.55 49.03 41.02L48.49 41.57L44.09 46L43.69 46.4L42.69 47.4L38.87 51.22L38.67 51L34.1 46.41L33.1 45.41L32.83 45.14C32.7328 45.0406 32.6158 44.9626 32.4867 44.9109C32.3575 44.8592 32.219 44.8351 32.08 44.84C31.8006 44.8392 31.5318 44.9468 31.33 45.14L31.07 45.41L25.56 51C25.4602 51.0978 25.381 51.2145 25.3269 51.3432C25.2727 51.472 25.2449 51.6103 25.2449 51.75C25.2449 51.8897 25.2727 52.028 25.3269 52.1568C25.381 52.2855 25.4602 52.4022 25.56 52.5L25.82 52.76C25.9185 52.8586 26.0354 52.9368 26.1641 52.9901C26.2928 53.0435 26.4307 53.0709 26.57 53.0709C26.7093 53.0709 26.8473 53.0435 26.976 52.9901C27.1047 52.9368 27.2216 52.8586 27.32 52.76L32.11 48L32.34 48.22L36.91 52.79L37.91 53.79L38.17 54.05C38.2682 54.1488 38.3851 54.2272 38.5139 54.2804C38.6426 54.3336 38.7807 54.3607 38.92 54.36C39.2035 54.3566 39.475 54.2458 39.68 54.05L39.94 53.79L44.51 49.22L45.51 48.22L45.91 47.83L50.35 43.39L50.89 42.85L52.34 44.29C52.3949 44.3633 52.4639 44.4249 52.5429 44.4712C52.6219 44.5176 52.7093 44.5478 52.8 44.56C52.8832 44.5558 52.9647 44.5354 53.04 44.5C53.1598 44.429 53.2571 44.3257 53.3208 44.2018C53.3845 44.078 53.412 43.9387 53.4 43.8C53.47 42.23 53.55 40.67 53.62 39.1C53.58 38.57 53.39 38.36 52.92 38.36Z" fill="#F5F5F5"/>
</svg>
