<svg width="248" height="282" viewBox="0 0 248 282" fill="none" xmlns="http://www.w3.org/2000/svg">
<circle cx="124" cy="124" r="124" fill="white"/>
<path fill-rule="evenodd" clip-rule="evenodd" d="M27.0442 201.309C36.4475 165.752 77.1784 139 126 139C173.088 139 212.65 163.886 223.837 197.557C201.256 228.154 164.946 248 124 248C84.7533 248 49.7652 229.767 27.0442 201.309Z" fill="#C5C5C5"/>
<path d="M77.2146 128.65C78.8356 138.225 82.9027 147.224 89.0248 154.781C95.1469 162.338 103.118 168.199 112.172 171.801C120.479 174.733 129.545 174.733 137.851 171.801C146.85 168.125 154.775 162.254 160.898 154.728C167.022 147.201 171.146 138.262 172.892 128.733C175.542 128.733 179.104 124.772 182.832 111.406C188.051 93.1724 182.832 90.4497 177.862 90.8622C178.745 88.4228 179.411 85.9103 179.85 83.3541C188.134 36.0781 164.442 34.4279 164.442 34.4279C160.993 28.8643 156.099 24.3318 150.277 21.3095C141.558 16.2916 131.458 14.1812 121.45 15.2865C117.535 15.4483 113.661 16.1423 109.935 17.3492C105.443 18.9248 101.18 21.0889 97.2612 23.7846C92.4639 26.7988 88.0665 30.4024 84.1729 34.5105C77.259 41.2961 72.3822 49.8679 70.0905 59.2623C68.2688 67.1626 68.2688 75.3714 70.0905 83.2716C70.5979 85.7855 71.2619 88.2655 72.0786 90.6972C67.4398 90.2847 61.8897 92.9249 67.1084 111.241C71.0017 124.607 74.3152 128.485 77.2146 128.65Z" fill="#B7B6B6"/>
<path d="M88.1953 268.578V275.969C88.1953 277.271 87.8021 278.294 87.0156 279.039C86.2292 279.784 85.1484 280.156 83.7734 280.156C82.3984 280.156 81.3333 279.781 80.5781 279.031C79.8281 278.281 79.4531 277.25 79.4531 275.938V268.578H80.7812V276.031C80.7812 276.984 81.0417 277.716 81.5625 278.227C82.0833 278.737 82.849 278.992 83.8594 278.992C84.8229 278.992 85.5651 278.737 86.0859 278.227C86.6068 277.711 86.8672 276.974 86.8672 276.016V268.578H88.1953ZM96.5547 277.664C96.5547 278.461 96.2578 279.076 95.6641 279.508C95.0703 279.94 94.237 280.156 93.1641 280.156C92.0286 280.156 91.1432 279.977 90.5078 279.617V278.414C90.9193 278.622 91.3594 278.786 91.8281 278.906C92.3021 279.026 92.7578 279.086 93.1953 279.086C93.8724 279.086 94.3932 278.979 94.7578 278.766C95.1224 278.547 95.3047 278.216 95.3047 277.773C95.3047 277.44 95.1589 277.156 94.8672 276.922C94.5807 276.682 94.0182 276.401 93.1797 276.078C92.3828 275.781 91.8151 275.523 91.4766 275.305C91.1432 275.081 90.8932 274.828 90.7266 274.547C90.5651 274.266 90.4844 273.93 90.4844 273.539C90.4844 272.841 90.7682 272.292 91.3359 271.891C91.9036 271.484 92.6823 271.281 93.6719 271.281C94.5938 271.281 95.4948 271.469 96.375 271.844L95.9141 272.898C95.0547 272.544 94.276 272.367 93.5781 272.367C92.9635 272.367 92.5 272.464 92.1875 272.656C91.875 272.849 91.7188 273.115 91.7188 273.453C91.7188 273.682 91.776 273.878 91.8906 274.039C92.0104 274.201 92.2005 274.354 92.4609 274.5C92.7214 274.646 93.2214 274.857 93.9609 275.133C94.9766 275.503 95.6615 275.875 96.0156 276.25C96.375 276.625 96.5547 277.096 96.5547 277.664ZM102.289 280.156C101.023 280.156 100.023 279.771 99.2891 279C98.5599 278.229 98.1953 277.159 98.1953 275.789C98.1953 274.409 98.5339 273.312 99.2109 272.5C99.8932 271.688 100.807 271.281 101.953 271.281C103.026 271.281 103.875 271.635 104.5 272.344C105.125 273.047 105.438 273.977 105.438 275.133V275.953H99.5391C99.5651 276.958 99.8177 277.721 100.297 278.242C100.781 278.763 101.461 279.023 102.336 279.023C103.258 279.023 104.169 278.831 105.07 278.445V279.602C104.612 279.799 104.177 279.94 103.766 280.023C103.359 280.112 102.867 280.156 102.289 280.156ZM101.938 272.367C101.25 272.367 100.701 272.591 100.289 273.039C99.8828 273.487 99.6432 274.107 99.5703 274.898H104.047C104.047 274.081 103.865 273.456 103.5 273.023C103.135 272.586 102.615 272.367 101.938 272.367ZM111.562 271.281C111.943 271.281 112.284 271.312 112.586 271.375L112.406 272.578C112.052 272.5 111.74 272.461 111.469 272.461C110.776 272.461 110.182 272.742 109.688 273.305C109.198 273.867 108.953 274.568 108.953 275.406V280H107.656V271.438H108.727L108.875 273.023H108.938C109.255 272.466 109.638 272.036 110.086 271.734C110.534 271.432 111.026 271.281 111.562 271.281ZM124.203 280V274.461C124.203 273.763 124.044 273.242 123.727 272.898C123.409 272.555 122.911 272.383 122.234 272.383C121.339 272.383 120.682 272.625 120.266 273.109C119.849 273.594 119.641 274.393 119.641 275.508V280H118.344V271.438H119.398L119.609 272.609H119.672C119.938 272.188 120.31 271.862 120.789 271.633C121.268 271.398 121.802 271.281 122.391 271.281C123.422 271.281 124.198 271.531 124.719 272.031C125.24 272.526 125.5 273.32 125.5 274.414V280H124.203ZM133.438 280L133.18 278.781H133.117C132.69 279.318 132.263 279.682 131.836 279.875C131.414 280.062 130.885 280.156 130.25 280.156C129.401 280.156 128.734 279.938 128.25 279.5C127.771 279.062 127.531 278.44 127.531 277.633C127.531 275.904 128.914 274.997 131.68 274.914L133.133 274.867V274.336C133.133 273.664 132.987 273.169 132.695 272.852C132.409 272.529 131.948 272.367 131.312 272.367C130.599 272.367 129.792 272.586 128.891 273.023L128.492 272.031C128.914 271.802 129.375 271.622 129.875 271.492C130.38 271.362 130.885 271.297 131.391 271.297C132.411 271.297 133.167 271.523 133.656 271.977C134.151 272.43 134.398 273.156 134.398 274.156V280H133.438ZM130.508 279.086C131.315 279.086 131.948 278.865 132.406 278.422C132.87 277.979 133.102 277.359 133.102 276.562V275.789L131.805 275.844C130.773 275.88 130.029 276.042 129.57 276.328C129.117 276.609 128.891 277.049 128.891 277.648C128.891 278.117 129.031 278.474 129.312 278.719C129.599 278.964 129.997 279.086 130.508 279.086ZM147.992 280V274.43C147.992 273.747 147.846 273.237 147.555 272.898C147.263 272.555 146.81 272.383 146.195 272.383C145.388 272.383 144.792 272.615 144.406 273.078C144.021 273.542 143.828 274.255 143.828 275.219V280H142.531V274.43C142.531 273.747 142.385 273.237 142.094 272.898C141.802 272.555 141.346 272.383 140.727 272.383C139.914 272.383 139.318 272.628 138.938 273.117C138.562 273.602 138.375 274.398 138.375 275.508V280H137.078V271.438H138.133L138.344 272.609H138.406C138.651 272.193 138.995 271.867 139.438 271.633C139.885 271.398 140.385 271.281 140.938 271.281C142.276 271.281 143.151 271.766 143.562 272.734H143.625C143.88 272.286 144.25 271.932 144.734 271.672C145.219 271.411 145.771 271.281 146.391 271.281C147.359 271.281 148.083 271.531 148.562 272.031C149.047 272.526 149.289 273.32 149.289 274.414V280H147.992ZM155.586 280.156C154.32 280.156 153.32 279.771 152.586 279C151.857 278.229 151.492 277.159 151.492 275.789C151.492 274.409 151.831 273.312 152.508 272.5C153.19 271.688 154.104 271.281 155.25 271.281C156.323 271.281 157.172 271.635 157.797 272.344C158.422 273.047 158.734 273.977 158.734 275.133V275.953H152.836C152.862 276.958 153.115 277.721 153.594 278.242C154.078 278.763 154.758 279.023 155.633 279.023C156.555 279.023 157.466 278.831 158.367 278.445V279.602C157.909 279.799 157.474 279.94 157.062 280.023C156.656 280.112 156.164 280.156 155.586 280.156ZM155.234 272.367C154.547 272.367 153.997 272.591 153.586 273.039C153.18 273.487 152.94 274.107 152.867 274.898H157.344C157.344 274.081 157.161 273.456 156.797 273.023C156.432 272.586 155.911 272.367 155.234 272.367Z" fill="white"/>
</svg>
