<svg width="16" height="16" viewBox="0 0 16 16" fill="none" xmlns="http://www.w3.org/2000/svg">
<path opacity="0.09" d="M2.1103 14.761C1.87613 14.761 1.65151 14.6682 1.48563 14.5029C1.31976 14.3376 1.22616 14.1133 1.22534 13.8792V11.7286C1.22539 11.6679 1.24332 11.6085 1.27688 11.5579C1.31044 11.5073 1.35816 11.4676 1.41409 11.444C1.52979 11.3957 1.63491 11.3253 1.72352 11.2366L3.74718 9.19133C3.80481 9.13416 3.8826 9.10193 3.96378 9.10159C3.99758 9.09594 4.03209 9.09594 4.06589 9.10159C4.12015 9.12072 4.16801 9.15459 4.20408 9.19941C4.24016 9.24423 4.26302 9.29822 4.27011 9.35532C4.27679 9.40349 4.27887 9.45219 4.2763 9.50075V13.8637C4.27793 13.9804 4.25646 14.0963 4.2131 14.2047C4.16975 14.3131 4.10538 14.4119 4.02369 14.4953C3.94201 14.5787 3.84463 14.6451 3.73716 14.6907C3.6297 14.7363 3.51427 14.7602 3.39752 14.761H2.1103Z" fill="white"/>
<path d="M2.24313 11.1438C2.12715 11.261 1.98947 11.3545 1.83778 11.4192V13.5573C1.83611 13.6343 1.84998 13.7109 1.87859 13.7824C1.90719 13.8539 1.94993 13.9189 2.00424 13.9735C2.05855 14.0281 2.12332 14.0712 2.19468 14.1001C2.26603 14.1291 2.3425 14.1434 2.41951 14.1421H3.71291C3.78836 14.1409 3.86282 14.1248 3.93201 14.0947C4.00121 14.0647 4.06377 14.0212 4.11611 13.9668C4.16844 13.9125 4.20952 13.8483 4.23697 13.778C4.26442 13.7078 4.27771 13.6327 4.27607 13.5573V9.19129C4.27773 9.1645 4.27773 9.13763 4.27607 9.11084L2.24313 11.1438Z" fill="white"/>
<path opacity="0.09" d="M7.71081 12.0844C7.59578 12.0849 7.48181 12.0624 7.37556 12.0183C7.2693 11.9742 7.1729 11.9094 7.09196 11.8276L4.03791 8.77356L1.64913 11.1623C1.48429 11.3255 1.26218 11.4176 1.03027 11.4192C0.915234 11.4196 0.801265 11.3971 0.695013 11.353C0.58876 11.3089 0.492354 11.2441 0.411417 11.1623L0.253609 11.02C0.0910946 10.855 0 10.6327 0 10.4011C0 10.1696 0.0910946 9.94728 0.253609 9.78229L3.40668 6.62613C3.57193 6.46324 3.79352 6.37017 4.02553 6.36621C4.25801 6.36789 4.48043 6.4613 4.64439 6.62613L7.69844 9.68018L12.7978 4.57772L12.2161 3.9929C12.1176 3.91334 12.0479 3.80367 12.0177 3.68071C11.9875 3.55775 11.9985 3.42828 12.049 3.31216C12.1028 3.1962 12.1911 3.09973 12.3019 3.03601C12.4127 2.9723 12.5406 2.94446 12.6678 2.95632L15.2856 2.83255H15.3413C15.431 2.82772 15.5207 2.84144 15.6048 2.87286C15.6889 2.90427 15.7656 2.9527 15.8302 3.01511C15.8912 3.08443 15.9375 3.16544 15.9662 3.25321C15.995 3.34098 16.0055 3.43368 15.9973 3.52567C15.954 4.38278 15.9137 5.23061 15.8766 6.08154C15.8783 6.21105 15.8446 6.33857 15.7792 6.45035C15.7137 6.56212 15.6191 6.65393 15.5053 6.71586C15.421 6.76297 15.3264 6.78848 15.2299 6.79013C15.1417 6.78494 15.0556 6.76166 14.9768 6.72173C14.898 6.68181 14.8283 6.62609 14.772 6.55806L14.1933 5.98252L8.33586 11.8276C8.16912 11.9917 7.94473 12.0839 7.71081 12.0844Z" fill="white"/>
<path d="M15.6414 2.81708H15.5981L12.9834 2.94085C12.8473 2.94085 12.7142 2.94085 12.64 3.11722C12.5657 3.2936 12.64 3.37095 12.7421 3.46378C13.0113 3.73298 13.2774 4.00528 13.5466 4.2652L13.2372 4.57463L10.8205 6.98816L10.607 7.20476L10.081 7.73079L8.02022 9.81014L7.89955 9.68946L5.42413 7.21404L4.895 6.66326L4.75267 6.52093C4.6995 6.46767 4.6363 6.42548 4.56672 6.3968C4.49715 6.36812 4.42257 6.35351 4.34732 6.35384C4.19477 6.35503 4.04852 6.41485 3.93887 6.52093L3.79654 6.66326L0.782712 9.67709C0.675571 9.78541 0.615479 9.93162 0.615479 10.084C0.615479 10.2363 0.675571 10.3826 0.782712 10.4909L0.925049 10.6332C1.03337 10.7404 1.17959 10.8005 1.33195 10.8005C1.48431 10.8005 1.63052 10.7404 1.73884 10.6332L4.34732 8.02784L4.4649 8.14852L6.94032 10.6239L7.46635 11.1531L7.60868 11.2923C7.71701 11.3994 7.86322 11.4595 8.01558 11.4595C8.16794 11.4595 8.31415 11.3994 8.42248 11.2923L8.56482 11.1531L11.0402 8.67764L11.5663 8.15161L11.7798 7.93501L14.1964 5.52147L14.4873 5.22752L15.2763 6.01037C15.3057 6.05119 15.3431 6.08566 15.3862 6.11171C15.4292 6.13776 15.4771 6.15486 15.5269 6.16199C15.5725 6.15934 15.6168 6.14666 15.6569 6.12486C15.7225 6.08737 15.7759 6.03191 15.811 5.96502C15.8461 5.89814 15.8614 5.82261 15.8549 5.74736C15.8921 4.89334 15.9354 4.04551 15.9756 3.19458C15.9973 2.93466 15.889 2.81708 15.6414 2.81708Z" fill="white"/>
<path opacity="0.09" d="M7.48512 8.09903C7.41841 8.10089 7.35205 8.08881 7.29028 8.06356C7.22851 8.03832 7.17268 8.00046 7.12637 7.9524C7.08007 7.90435 7.0443 7.84716 7.02136 7.78449C6.99841 7.72183 6.9888 7.65506 6.99313 7.58847V7.33474C6.70718 7.2945 6.42877 7.21212 6.16696 7.09029C6.09625 7.06795 6.03117 7.03065 5.97615 6.98092C5.92114 6.93119 5.87747 6.87021 5.84811 6.8021C5.81876 6.734 5.80441 6.66038 5.80603 6.58624C5.80766 6.5121 5.82522 6.43917 5.85753 6.37242C5.90085 6.21461 5.94108 6.06299 5.98749 5.91137C6.06485 5.66074 6.20719 5.53387 6.40831 5.53387C6.50752 5.53872 6.6041 5.56738 6.68989 5.61742C6.92867 5.73943 7.18765 5.81702 7.45418 5.8464H7.56557C7.67173 5.84915 7.77725 5.8291 7.875 5.7876C7.90064 5.77871 7.92367 5.7636 7.94203 5.74362C7.9604 5.72364 7.97351 5.69941 7.98021 5.67312C7.98058 5.64543 7.97431 5.61806 7.96193 5.59329C7.94955 5.56853 7.93141 5.54709 7.90904 5.53078C7.83051 5.47244 7.74533 5.42363 7.65531 5.38535L7.37063 5.27395C7.14292 5.18884 6.9225 5.08535 6.71155 4.96453C6.43706 4.82931 6.20883 4.61574 6.05571 4.35082C5.9026 4.0859 5.83148 3.78152 5.85134 3.47618C5.86554 3.13523 5.98634 2.80733 6.19672 2.53866C6.40711 2.26999 6.69648 2.07409 7.02407 1.97855H7.06121V1.87025C7.06121 1.80836 7.06121 1.74957 7.06121 1.68459C7.04967 1.61317 7.05489 1.54004 7.07643 1.47097C7.09798 1.4019 7.13527 1.33878 7.18537 1.28658C7.23547 1.23438 7.29701 1.19453 7.36513 1.17017C7.43326 1.14581 7.50611 1.1376 7.57795 1.14619H7.76051C8.32367 1.14619 8.46291 1.28234 8.4691 1.85168V1.87025H8.48767C8.72679 1.90709 8.9599 1.97577 9.18079 2.07447C9.30099 2.1184 9.39883 2.20827 9.4528 2.32432C9.50676 2.44037 9.51243 2.5731 9.46855 2.69333L9.43142 2.82329C9.3912 2.95325 9.35716 3.08321 9.31384 3.21007C9.23339 3.45761 9.09105 3.57829 8.88992 3.57829C8.797 3.57486 8.70605 3.55054 8.62382 3.50712C8.39839 3.39719 8.15054 3.34106 7.89976 3.34313H7.80074C7.7469 3.34293 7.69345 3.35236 7.64293 3.37097C7.59961 3.38954 7.57795 3.41429 7.57486 3.42976C7.5774 3.44414 7.58282 3.45786 7.59079 3.47009C7.59877 3.48232 7.60914 3.49281 7.62127 3.50093C7.72815 3.58192 7.84584 3.64754 7.97092 3.69587L8.02353 3.71753C8.28099 3.81763 8.53209 3.93336 8.77544 4.06409C9.00409 4.18668 9.20264 4.35853 9.35676 4.56723C9.51088 4.77593 9.6167 5.01626 9.66659 5.27086C9.71214 5.51144 9.70385 5.75913 9.64233 5.99613C9.58081 6.23313 9.46757 6.45357 9.31075 6.64162C9.08117 6.91891 8.77414 7.12144 8.42888 7.22335V7.59157C8.43184 7.65647 8.42149 7.72129 8.39848 7.78204C8.37547 7.8428 8.34028 7.89821 8.29508 7.94487C8.24987 7.99152 8.19559 8.02844 8.13559 8.05336C8.07559 8.07827 8.01113 8.09066 7.94617 8.08974H7.48512V8.09903Z" fill="white"/>
<path d="M6.60604 6.49308C6.85451 6.60634 7.11828 6.68245 7.38889 6.71896C7.5993 6.753 7.60549 6.76228 7.60859 6.97888C7.60859 7.08099 7.60859 7.18001 7.60859 7.28831C7.60478 7.31453 7.60693 7.34128 7.61489 7.36656C7.62284 7.39184 7.63639 7.415 7.65452 7.43433C7.67266 7.45365 7.69491 7.46864 7.71964 7.47818C7.74436 7.48772 7.77092 7.49157 7.79734 7.48943C7.94586 7.48943 8.10677 7.48943 8.23982 7.48943C8.26497 7.49201 8.29038 7.48884 8.31412 7.48017C8.33787 7.4715 8.35934 7.45755 8.37692 7.43938C8.3945 7.4212 8.40772 7.39928 8.41559 7.37526C8.42347 7.35123 8.42579 7.32573 8.42238 7.30068C8.42238 7.16454 8.42238 7.03148 8.42238 6.89224C8.41846 6.86358 8.42024 6.83444 8.42762 6.80647C8.43499 6.7785 8.44781 6.75227 8.46535 6.72927C8.48288 6.70627 8.50479 6.68696 8.52981 6.67245C8.55482 6.65793 8.58246 6.6485 8.61113 6.6447C8.91209 6.565 9.18047 6.39293 9.37851 6.15271C9.50852 5.99212 9.60107 5.80455 9.64943 5.60367C9.69778 5.40279 9.70073 5.19366 9.65804 4.9915C9.61536 4.78934 9.52812 4.59924 9.40268 4.43506C9.27724 4.27087 9.11677 4.13674 8.93294 4.04241C8.6825 3.91009 8.42416 3.79332 8.15937 3.69276C8.00713 3.63324 7.86434 3.55194 7.73545 3.4514C7.67811 3.41281 7.63279 3.35885 7.60468 3.29571C7.57657 3.23257 7.56679 3.16278 7.57648 3.09435C7.58616 3.02591 7.61491 2.96158 7.65944 2.90871C7.70397 2.85585 7.76248 2.81659 7.82828 2.79542C7.91144 2.76374 7.99926 2.74596 8.0882 2.74281C8.42513 2.72265 8.76165 2.78868 9.06599 2.93466C9.2207 3.00892 9.27331 2.98417 9.32591 2.82327C9.37851 2.66236 9.42802 2.4829 9.47753 2.30962C9.48721 2.28617 9.49182 2.26093 9.49103 2.23558C9.49025 2.21022 9.4841 2.18532 9.47299 2.16251C9.46188 2.1397 9.44606 2.11951 9.42657 2.10326C9.40709 2.08702 9.38438 2.07509 9.35995 2.06826C9.16234 1.98113 8.95435 1.91977 8.74109 1.8857C8.46261 1.84238 8.46261 1.84238 8.46261 1.5608C8.46261 1.16473 8.46261 1.16473 8.06345 1.16473H7.89635C7.7107 1.16473 7.67976 1.20186 7.67666 1.38752C7.67666 1.47416 7.67666 1.55461 7.67666 1.64125C7.67666 1.88879 7.67666 1.8857 7.43531 1.97234C7.16288 2.04821 6.92189 2.20929 6.74761 2.432C6.57334 2.65472 6.47493 2.92737 6.4668 3.21005C6.45357 3.4577 6.51376 3.70375 6.63982 3.91733C6.76587 4.13091 6.95219 4.30252 7.17539 4.41063C7.46394 4.5619 7.76155 4.69521 8.06654 4.80979C8.17826 4.85742 8.28249 4.921 8.37597 4.99854C8.43865 5.04404 8.4883 5.10519 8.51994 5.17588C8.55159 5.24657 8.56412 5.32434 8.55629 5.40139C8.54846 5.47845 8.52054 5.5521 8.47532 5.61499C8.4301 5.67787 8.36917 5.72778 8.29861 5.75973C8.11854 5.83367 7.92227 5.85927 7.72926 5.834C7.42522 5.80015 7.12969 5.71212 6.85668 5.57408C6.69578 5.48744 6.64936 5.5091 6.59676 5.68547C6.54416 5.86185 6.50702 5.9949 6.4668 6.14033C6.39254 6.34765 6.4111 6.40644 6.60604 6.49308Z" fill="white"/>
<path opacity="0.09" d="M5.47687 14.761C5.35961 14.7618 5.24336 14.7394 5.13487 14.6949C5.02638 14.6504 4.92781 14.5848 4.84489 14.5018C4.76198 14.4189 4.69637 14.3204 4.65187 14.2119C4.60738 14.1034 4.58489 13.9871 4.58572 13.8699V10.6116C4.58605 10.4537 4.6288 10.2987 4.70949 10.1629C4.73344 10.1227 4.76622 10.0884 4.80535 10.0627C4.84448 10.037 4.88893 10.0205 4.93537 10.0144H4.97559C5.05721 10.0156 5.13506 10.0489 5.19219 10.1072L6.99925 11.9112C7.11659 12.0306 7.26253 12.1179 7.42317 12.1649C7.4901 12.1836 7.54878 12.2243 7.58975 12.2805C7.63073 12.3366 7.65162 12.4049 7.64905 12.4744V13.8853C7.64662 14.1174 7.55316 14.3392 7.38879 14.5029C7.22443 14.6667 7.00231 14.7594 6.77027 14.761H5.47687Z" fill="white"/>
<path d="M6.95276 11.6667L6.4422 11.1469L5.3066 10.0113C5.25382 10.0991 5.22601 10.1997 5.22615 10.3022V13.5604C5.22366 13.7117 5.28118 13.8579 5.38613 13.9669C5.49109 14.0759 5.63493 14.1389 5.78622 14.1421H7.07962C7.23144 14.1421 7.37705 14.0818 7.4844 13.9745C7.59175 13.8671 7.65206 13.7215 7.65206 13.5697V12.1494C7.44175 12.0871 7.25031 11.9733 7.09509 11.8183L6.95276 11.6667Z" fill="white"/>
<path opacity="0.09" d="M8.84956 14.761C8.61539 14.761 8.39077 14.6682 8.22489 14.5029C8.05902 14.3376 7.96542 14.1133 7.9646 13.8791V12.3784C7.96476 12.3201 7.98141 12.263 8.01262 12.2137C8.04382 12.1645 8.08832 12.125 8.14097 12.0999C8.24256 12.0529 8.33481 11.9879 8.41327 11.9081L10.3317 9.98964C10.3606 9.96096 10.3949 9.93827 10.4326 9.92288C10.4703 9.90748 10.5107 9.89967 10.5514 9.89991C10.6326 9.90025 10.7104 9.93248 10.768 9.98964C10.85 10.0705 10.9152 10.1669 10.9599 10.2731C11.0045 10.3793 11.0276 10.4933 11.0279 10.6085V13.8699C11.0296 14.1035 10.9388 14.3283 10.7753 14.4953C10.6118 14.6622 10.389 14.7578 10.1553 14.761H8.84956Z" fill="white"/>
<path d="M9.08173 11.6667L8.94249 11.8091C8.83769 11.9121 8.71636 11.9968 8.58355 12.0597V13.5511C8.58105 13.6281 8.59412 13.7048 8.62196 13.7766C8.6498 13.8485 8.69185 13.9139 8.74558 13.9691C8.79932 14.0243 8.86364 14.068 8.93469 14.0978C9.00574 14.1275 9.08207 14.1426 9.15909 14.1422H10.4649C10.5403 14.1426 10.6151 14.1281 10.6849 14.0995C10.7547 14.0709 10.8182 14.0288 10.8717 13.9756C10.9251 13.9224 10.9676 13.8591 10.9965 13.7895C11.0255 13.7198 11.0404 13.6451 11.0404 13.5697V10.3022C11.0402 10.1512 10.9801 10.0065 10.8733 9.8999L9.08173 11.6667Z" fill="white"/>
<path d="M12.3211 8.44865L12.1045 8.66216L11.9653 8.8014V13.5542C11.9632 13.6299 11.9762 13.7052 12.0035 13.7759C12.0308 13.8465 12.0718 13.9111 12.1241 13.9657C12.1765 14.0204 12.2392 14.0642 12.3086 14.0944C12.378 14.1247 12.4527 14.1409 12.5285 14.1421H13.8219C13.8973 14.1425 13.9721 14.128 14.0419 14.0994C14.1117 14.0709 14.1752 14.0288 14.2286 13.9756C14.2821 13.9224 14.3246 13.8591 14.3535 13.7895C14.3825 13.7198 14.3974 13.6451 14.3974 13.5697V6.45285C14.3988 6.42708 14.3988 6.40125 14.3974 6.37549L12.3211 8.44865Z" fill="white"/>
<path opacity="0.09" d="M12.2192 14.761C11.985 14.761 11.7604 14.6682 11.5945 14.5029C11.4286 14.3376 11.335 14.1133 11.3342 13.8792V9.11088C11.3344 9.06994 11.3427 9.02944 11.3586 8.99173C11.3746 8.95402 11.3978 8.91984 11.4271 8.89118L13.8684 6.45599C13.8971 6.42675 13.9313 6.40349 13.969 6.38756C14.0067 6.37162 14.0472 6.36333 14.0881 6.36316C14.122 6.36306 14.1556 6.36936 14.1872 6.38173C14.2424 6.4006 14.2912 6.43474 14.3279 6.48019C14.3646 6.52564 14.3877 6.58054 14.3945 6.63855C14.3974 6.67562 14.3974 6.71287 14.3945 6.74994V13.8668C14.3957 13.9835 14.3738 14.0993 14.3301 14.2076C14.2863 14.3158 14.2216 14.4143 14.1397 14.4975C14.0577 14.5806 13.9601 14.6467 13.8525 14.6919C13.7448 14.7371 13.6293 14.7606 13.5126 14.761H12.2192Z" fill="white"/>
</svg>
